<svg xmlns="http://www.w3.org/2000/svg" width="1280" height="666"><path opacity=".96" fill="#212934" stroke="#212934" enable-background="new" d="M1216 0h64l-64 37V0z"/><path opacity=".94" fill="#212934" stroke="#212934" enable-background="new" d="M64 0H0l64 37V0zm0 0h64L64 37V0z"/><path fill="#212934" stroke="#212934" d="M192 0h-64l64 37V0z"/><path opacity=".94" fill="#212934" stroke="#212934" enable-background="new" d="M1280.086 0l-64 37 64 37V0z"/><path fill="#212934" stroke="#212934" d="M0 0l64 37L0 74V0zm128 0L64 37l64 37V0z"/><path opacity=".98" fill="#212934" stroke="#212934" enable-background="new" d="M128 0l64 37-64 37V0z"/><path fill="#212934" stroke="#212934" d="M256.086 0l-64 37 64 37V0z"/><path opacity=".94" fill="#212934" stroke="#212934" enable-background="new" d="M192 0h64l-64 37V0z"/><path opacity=".96" fill="#212934" stroke="#212934" enable-background="new" d="M320.086 0h-64l64 37V0zM320 0h64l-64 37V0z"/><path fill="#212934" stroke="#212934" d="M448 0h-64l64 37V0z"/><path opacity=".9" fill="#212934" stroke="#212934" enable-background="new" d="M448 0h64l-64 37V0z"/><path opacity=".98" fill="#212934" stroke="#212934" enable-background="new" d="M576.085 0h-64l64 37V0z"/><path opacity=".96" fill="#212934" stroke="#212934" enable-background="new" d="M576 0h64l-64 37V0z"/><path fill="#212934" stroke="#212934" d="M704 0h-64l64 37V0z"/><path opacity=".98" fill="#212934" stroke="#212934" enable-background="new" d="M704 0h64l-64 37z"/><path opacity=".96" fill="#212934" stroke="#212934" enable-background="new" d="M832.086 0h-64l64 37z"/><path opacity=".98" fill="#212934" stroke="#212934" enable-background="new" d="M832 0h64l-64 37z"/><path opacity=".96" fill="#212934" stroke="#212934" d="M960 0h-64l64 37V0z"/><path opacity=".9" fill="#212934" stroke="#212934" enable-background="new" d="M960 0h64l-64 37V0z"/><path opacity=".94" fill="#212934" stroke="#212934" enable-background="new" d="M1088.086 0h-64l64 37V0z"/><path fill="#212934" stroke="#212934" d="M1088 0h64l-64 37V0z"/><path opacity=".96" fill="#212934" stroke="#212934" enable-background="new" d="M1216.086 0h-64l64 37V0z"/><path opacity=".98" fill="#212934" stroke="#212934" enable-background="new" d="M256 0l64 37-64 37V0z"/><path opacity=".96" fill="#212934" stroke="#212934" enable-background="new" d="M384 0l-64 37 64 37V0zm0 0l64 37-64 37V0z"/><path opacity=".85" fill="#212934" stroke="#212934" enable-background="new" d="M512.085 0l-64 37 64 37V0z"/><path opacity=".96" fill="#212934" stroke="#212934" enable-background="new" d="M512 0l64 37-64 37V0z"/><path opacity=".98" fill="#212934" stroke="#212934" enable-background="new" d="M640 0l-64 37 64 37V0z"/><path opacity=".94" fill="#212934" stroke="#212934" enable-background="new" d="M640 0l64 37-64 37V0z"/><path fill="#212934" stroke="#212934" d="M768.086 0l-64 37 64 37V0z"/><path opacity=".94" fill="#212934" stroke="#212934" enable-background="new" d="M768 0l64 37-64 37V0z"/><path opacity=".98" fill="#212934" stroke="#212934" enable-background="new" d="M896 0l-64 37 64 37V0z"/><path opacity=".96" fill="#212934" stroke="#212934" enable-background="new" d="M896 0l64 37-64 37V0z"/><path fill="#212934" stroke="#212934" d="M1024.086 0l-64 37 64 37V0zM1024 0l64 37-64 37V0z"/><path opacity=".98" fill="#212934" stroke="#212934" enable-background="new" d="M1152 0l-64 37 64 37V0z"/><path opacity=".96" fill="#212934" stroke="#212934" enable-background="new" d="M1152 0l64 37-64 37V0z"/><path opacity=".94" fill="#212934" stroke="#212934" enable-background="new" d="M1216 37l64 37-64 37V37z"/><path opacity=".98" fill="#212934" stroke="#212934" enable-background="new" d="M64 37L0 74l64 37V37z"/><path opacity=".94" fill="#212934" stroke="#212934" enable-background="new" d="M64.086 37l64 37-64 37V37z"/><path opacity=".98" fill="#212934" stroke="#212934" enable-background="new" d="M192 37l-64 37 64 37V37z"/><path opacity=".94" fill="#212934" stroke="#212934" enable-background="new" d="M1280 74l-64 37 64 37V74z"/><path fill="#212934" stroke="#212934" d="M0 74l64 37-64 37V74z"/><path opacity=".94" fill="#212934" stroke="#212934" enable-background="new" d="M128 74l-64 37 64 37V74z"/><path fill="#212934" stroke="#212934" d="M128 74l64 37-64 37V74z"/><path opacity=".98" fill="#212934" stroke="#212934" enable-background="new" d="M256 74l-64 37 64 37V74z"/><path opacity=".96" fill="#212934" stroke="#212934" enable-background="new" d="M192 37l64 37-64 37V37z"/><path fill="#212934" stroke="#212934" d="M320 37l-64 37 64 37V37z"/><path opacity=".98" fill="#212934" stroke="#212934" enable-background="new" d="M320 37l64 37-64 37V37z"/><path opacity=".96" fill="#212934" stroke="#212934" enable-background="new" d="M448.086 37l-64 37 64 37V37z"/><path opacity=".94" fill="#212934" stroke="#212934" enable-background="new" d="M448 37l64 37-64 37V37z"/><path opacity=".98" fill="#212934" stroke="#212934" enable-background="new" d="M576 37l-64 37 64 37V37z"/><path opacity=".96" fill="#212934" stroke="#212934" enable-background="new" d="M576 37l64 37-64 37V37z"/><path opacity=".98" fill="#212934" stroke="#212934" enable-background="new" d="M704.086 37l-64 37 64 37V37z"/><path opacity=".94" fill="#212934" stroke="#212934" enable-background="new" d="M704 37l64 37-64 37V37z"/><path fill="#212934" stroke="#212934" d="M832 37l-64 37 64 37V37z"/><path opacity=".96" fill="#212934" stroke="#212934" enable-background="new" d="M832 37l64 37-64 37V37z"/><path fill="#212934" stroke="#212934" d="M960.086 37l-64 37 64 37V37zM960 37l64 37-64 37V37z"/><path opacity=".94" fill="#212934" stroke="#212934" enable-background="new" d="M1088 37l-64 37 64 37V37z"/><path opacity=".9" fill="#212934" stroke="#212934" enable-background="new" d="M1088 37l64 37-64 37V37z"/><path opacity=".96" fill="#212934" stroke="#212934" enable-background="new" d="M1216.086 37l-64 37 64 37V37z"/><path opacity=".94" fill="#212934" stroke="#212934" enable-background="new" d="M256.086 74l64 37-64 37V74z"/><path fill="#212934" stroke="#212934" d="M384 74l-64 37 64 37V74zm0 0l64 37-64 37V74z"/><path opacity=".98" fill="#212934" stroke="#212934" enable-background="new" d="M512 74l-64 37 64 37V74z"/><path opacity=".94" fill="#212934" stroke="#212934" enable-background="new" d="M512.085 74l64 37-64 37V74z"/><path opacity=".96" fill="#212934" stroke="#212934" enable-background="new" d="M640 74l-64 37 64 37V74zm0 0l64 37-64 37V74zm128 0l-64 37 64 37V74z"/><path opacity=".98" fill="#212934" stroke="#212934" enable-background="new" d="M768.086 74l64 37-64 37V74z"/><path fill="#212934" stroke="#212934" d="M896 74l-64 37 64 37V74z"/><path opacity=".96" fill="#212934" stroke="#212934" enable-background="new" d="M896 74l64 37-64 37V74z"/><path opacity=".98" fill="#212934" stroke="#212934" enable-background="new" d="M1024.086 74l-64 37 64 37V74z"/><path opacity=".96" fill="#212934" stroke="#212934" enable-background="new" d="M1024 74l64 37-64 37V74z"/><path opacity=".8" fill="#212934" stroke="#212934" enable-background="new" d="M1152.086 74l-64 37 64 37V74z"/><path opacity=".98" fill="#212934" stroke="#212934" enable-background="new" d="M1152 74l64 37-64 37V74z"/><path fill="#212934" stroke="#212934" d="M1216 111l64 37-64 37v-74z"/><path opacity=".94" fill="#212934" stroke="#212934" enable-background="new" d="M64 111L0 148l64 37v-74zm.086 0l64 37-64 37v-74z"/><path opacity=".96" fill="#212934" stroke="#212934" enable-background="new" d="M192.086 111l-64 37 64 37v-74zm1088 37l-64 37 64 37v-74zM0 148l64 37-64 37v-74z"/><path fill="#212934" stroke="#212934" d="M128 148l-64 37 64 37v-74z"/><path opacity=".98" fill="#212934" stroke="#212934" enable-background="new" d="M128 148l64 37-64 37v-74z"/><path opacity=".94" fill="#212934" stroke="#212934" enable-background="new" d="M256.086 148l-64 37 64 37v-74zM192 111l64 37-64 37v-74z"/><path opacity=".96" fill="#212934" stroke="#212934" enable-background="new" d="M320 111l-64 37 64 37v-74z"/><path fill="#212934" stroke="#212934" d="M320 111l64 37-64 37v-74zm128.086 0l-64 37 64 37v-74z"/><path opacity=".96" fill="#212934" stroke="#212934" enable-background="new" d="M448 111l64 37-64 37v-74z"/><path opacity=".98" fill="#212934" stroke="#212934" enable-background="new" d="M576 111l-64 37 64 37v-74z"/><path opacity=".96" fill="#212934" stroke="#212934" enable-background="new" d="M576 111l64 37-64 37v-74zm128.086 0l-64 37 64 37v-74z"/><path opacity=".98" fill="#212934" stroke="#212934" enable-background="new" d="M704 111l64 37-64 37v-74zm128 0l-64 37 64 37v-74z"/><path opacity=".94" fill="#212934" stroke="#212934" enable-background="new" d="M832 111l64 37-64 37v-74zm128 0l-64 37 64 37v-74z"/><path fill="#212934" stroke="#212934" d="M960 111l64 37-64 37v-74zm128 0l-64 37 64 37v-74z"/><path opacity=".98" fill="#212934" stroke="#212934" enable-background="new" d="M1088 111l64 37-64 37v-74zm128.086 0l-64 37 64 37v-74z"/><path opacity=".94" fill="#212934" stroke="#212934" enable-background="new" d="M256 148l64 37-64 37v-74z"/><path opacity=".96" fill="#212934" stroke="#212934" enable-background="new" d="M384 148l-64 37 64 37v-74z"/><path fill="#212934" stroke="#212934" d="M384 148l64 37-64 37v-74z"/><path opacity=".98" fill="#212934" stroke="#212934" enable-background="new" d="M512.085 148l-64 37 64 37v-74z"/><path opacity=".94" fill="#212934" stroke="#212934" enable-background="new" d="M512 148l64 37-64 37v-74z"/><path fill="#212934" stroke="#212934" d="M640 148l-64 37 64 37v-74z"/><path opacity=".96" fill="#212934" stroke="#212934" enable-background="new" d="M640 148l64 37-64 37v-74z"/><path fill="#212934" stroke="#212934" d="M768 148l-64 37 64 37v-74z"/><path opacity=".96" fill="#212934" stroke="#212934" enable-background="new" d="M768.086 148l64 37-64 37v-74z"/><path opacity=".98" fill="#212934" stroke="#212934" enable-background="new" d="M896 148l-64 37 64 37v-74z"/><path fill="#212934" stroke="#212934" d="M896 148l64 37-64 37v-74z"/><path opacity=".94" fill="#212934" stroke="#212934" enable-background="new" d="M1024.086 148l-64 37 64 37v-74z"/><path opacity=".98" fill="#212934" stroke="#212934" enable-background="new" d="M1024 148l64 37-64 37v-74z"/><path opacity=".94" fill="#212934" stroke="#212934" enable-background="new" d="M1152 148l-64 37 64 37v-74z"/><path opacity=".85" fill="#212934" stroke="#212934" enable-background="new" d="M1152 148l64 37-64 37v-74z"/><path opacity=".96" fill="#212934" stroke="#212934" enable-background="new" d="M1216 185l64 37-64 37v-74z"/><path fill="#212934" stroke="#212934" d="M64.086 185l-64 37 64 37v-74zM64 185l64 37-64 37v-74z"/><path opacity=".96" fill="#212934" stroke="#212934" enable-background="new" d="M192.086 185l-64 37 64 37v-74z"/><path opacity=".94" fill="#212934" stroke="#212934" enable-background="new" d="M1280 222l-64 37 64 37v-74z"/><path opacity=".98" fill="#212934" stroke="#212934" enable-background="new" d="M0 222l64 37-64 37v-74z"/><path opacity=".94" fill="#212934" stroke="#212934" enable-background="new" d="M128.086 222l-64 37 64 37v-74z"/><path fill="#212934" stroke="#212934" d="M128 222l64 37-64 37v-74z"/><path opacity=".96" fill="#212934" stroke="#212934" enable-background="new" d="M256 222l-64 37 64 37v-74zm-64-37l64 37-64 37v-74z"/><path opacity=".94" fill="#212934" stroke="#212934" enable-background="new" d="M320 185l-64 37 64 37v-74zm0 0l64 37-64 37v-74z"/><path opacity=".96" fill="#212934" stroke="#212934" enable-background="new" d="M448 185l-64 37 64 37v-74z"/><path fill="#212934" stroke="#212934" d="M448 185l64 37-64 37v-74z"/><path opacity=".98" fill="#212934" stroke="#212934" enable-background="new" d="M576 185l-64 37 64 37v-74zm.085 0l64 37-64 37v-74zM704 185l-64 37 64 37v-74z"/><path opacity=".85" fill="#212934" stroke="#212934" enable-background="new" d="M704 185l64 37-64 37v-74z"/><path opacity=".94" fill="#212934" stroke="#212934" enable-background="new" d="M832 185l-64 37 64 37v-74z"/><path fill="#212934" stroke="#212934" d="M832.086 185l64 37-64 37v-74zM960 185l-64 37 64 37v-74z"/><path opacity=".98" fill="#212934" stroke="#212934" enable-background="new" d="M960.086 185l64 37-64 37v-74z"/><path opacity=".96" fill="#212934" stroke="#212934" enable-background="new" d="M1088 185l-64 37 64 37v-74z"/><path opacity=".98" fill="#212934" stroke="#212934" enable-background="new" d="M1088 185l64 37-64 37v-74z"/><path opacity=".94" fill="#212934" stroke="#212934" enable-background="new" d="M1216 185l-64 37 64 37v-74z"/><path opacity=".98" fill="#212934" stroke="#212934" enable-background="new" d="M256.086 222l64 37-64 37v-74z"/><path fill="#212934" stroke="#212934" d="M384 222l-64 37 64 37v-74z"/><path opacity=".96" fill="#212934" stroke="#212934" enable-background="new" d="M384 222l64 37-64 37v-74z"/><path opacity=".98" fill="#212934" stroke="#212934" enable-background="new" d="M512.085 222l-64 37 64 37v-74z"/><path fill="#212934" stroke="#212934" d="M512 222l64 37-64 37v-74z"/><path opacity=".94" fill="#212934" stroke="#212934" enable-background="new" d="M640 222l-64 37 64 37v-74z"/><path opacity=".96" fill="#212934" stroke="#212934" enable-background="new" d="M640 222l64 37-64 37v-74z"/><path opacity=".98" fill="#212934" stroke="#212934" enable-background="new" d="M768.086 222l-64 37 64 37v-74z"/><path fill="#212934" stroke="#212934" d="M768 222l64 37-64 37v-74z"/><path opacity=".94" fill="#212934" stroke="#212934" enable-background="new" d="M896 222l-64 37 64 37v-74z"/><path opacity=".96" fill="#212934" stroke="#212934" enable-background="new" d="M896 222l64 37-64 37v-74z"/><path fill="#212934" stroke="#212934" d="M1024 222l-64 37 64 37v-74z"/><path opacity=".98" fill="#212934" stroke="#212934" enable-background="new" d="M1024 222l64 37-64 37v-74z"/><path opacity=".94" fill="#212934" stroke="#212934" enable-background="new" d="M1152 222l-64 37 64 37v-74z"/><path opacity=".96" fill="#212934" stroke="#212934" enable-background="new" d="M1152.086 222l64 37-64 37v-74z"/><path fill="#212934" stroke="#212934" d="M1216.086 259l64 37-64 37v-74zM64 259L0 296l64 37v-74z"/><path opacity=".98" fill="#212934" stroke="#212934" enable-background="new" d="M64 259l64 37-64 37v-74zm128 0l-64 37 64 37v-74z"/><path fill="#212934" stroke="#212934" d="M1280 296l-64 37 64 37v-74z"/><path opacity=".96" fill="#212934" stroke="#212934" enable-background="new" d="M0 296l64 37-64 37v-74z"/><path opacity=".8" fill="#212934" stroke="#212934" enable-background="new" d="M128 296l-64 37 64 37v-74z"/><path opacity=".94" fill="#212934" stroke="#212934" enable-background="new" d="M128.086 296l64 37-64 37v-74z"/><path opacity=".96" fill="#212934" stroke="#212934" enable-background="new" d="M256.086 296l-64 37 64 37v-74z"/><path opacity=".94" fill="#212934" stroke="#212934" enable-background="new" d="M192 259l64 37-64 37v-74zm128 0l-64 37 64 37v-74z"/><path fill="#212934" stroke="#212934" d="M320.086 259l64 37-64 37v-74z"/><path opacity=".98" fill="#212934" stroke="#212934" enable-background="new" d="M448 259l-64 37 64 37v-74z"/><path opacity=".94" fill="#212934" stroke="#212934" enable-background="new" d="M448 259l64 37-64 37v-74z"/><path fill="#212934" stroke="#212934" d="M576.085 259l-64 37 64 37v-74z"/><path opacity=".96" fill="#212934" stroke="#212934" enable-background="new" d="M576 259l64 37-64 37v-74z"/><path opacity=".98" fill="#212934" stroke="#212934" enable-background="new" d="M704 259l-64 37 64 37v-74z"/><path fill="#212934" stroke="#212934" d="M704 259l64 37-64 37v-74z"/><path opacity=".96" fill="#212934" stroke="#212934" enable-background="new" d="M832.086 259l-64 37 64 37v-74z"/><path opacity=".94" fill="#212934" stroke="#212934" enable-background="new" d="M832 259l64 37-64 37v-74z"/><path opacity=".98" fill="#212934" stroke="#212934" enable-background="new" d="M960 259l-64 37 64 37v-74z"/><path opacity=".96" fill="#212934" stroke="#212934" enable-background="new" d="M960 259l64 37-64 37v-74zm128.086 0l-64 37 64 37v-74zm-.086 0l64 37-64 37v-74z"/><path opacity=".94" fill="#212934" stroke="#212934" enable-background="new" d="M1216 259l-64 37 64 37v-74z"/><path opacity=".98" fill="#212934" stroke="#212934" enable-background="new" d="M256 296l64 37-64 37v-74z"/><path opacity=".94" fill="#212934" stroke="#212934" enable-background="new" d="M384 296l-64 37 64 37v-74z"/><path opacity=".96" fill="#212934" stroke="#212934" enable-background="new" d="M384.086 296l64 37-64 37v-74zM512 296l-64 37 64 37v-74z"/><path opacity=".98" fill="#212934" stroke="#212934" enable-background="new" d="M512 296l64 37-64 37v-74z"/><path opacity=".94" fill="#212934" stroke="#212934" enable-background="new" d="M640 296l-64 37 64 37v-74z"/><path opacity=".98" fill="#212934" stroke="#212934" enable-background="new" d="M640 296l64 37-64 37v-74zm128.086 0l-64 37 64 37v-74z"/><path fill="#212934" stroke="#212934" d="M768 296l64 37-64 37v-74zm128 0l-64 37 64 37v-74zm0 0l64 37-64 37v-74z"/><path opacity=".94" fill="#212934" stroke="#212934" enable-background="new" d="M1024.086 296l-64 37 64 37v-74z"/><path fill="#212934" stroke="#212934" d="M1024 296l64 37-64 37v-74z"/><path opacity=".94" fill="#212934" stroke="#212934" enable-background="new" d="M1152 296l-64 37 64 37v-74z"/><path opacity=".98" fill="#212934" stroke="#212934" enable-background="new" d="M1152 296l64 37-64 37v-74z"/><path opacity=".94" fill="#212934" stroke="#212934" enable-background="new" d="M1216 333l64 37-64 37v-74zM64.086 333l-64 37 64 37v-74z"/><path opacity=".98" fill="#212934" stroke="#212934" enable-background="new" d="M64 333l64 37-64 37v-74z"/><path fill="#212934" stroke="#212934" d="M192 333l-64 37 64 37v-74z"/><path opacity=".98" fill="#212934" stroke="#212934" enable-background="new" d="M1280 370l-64 37 64 37v-74z"/><path fill="#212934" stroke="#212934" d="M0 370l64 37-64 37v-74z"/><path opacity=".98" fill="#212934" stroke="#212934" enable-background="new" d="M128 370l-64 37 64 37v-74z"/><path opacity=".96" fill="#212934" stroke="#212934" enable-background="new" d="M128.086 370l64 37-64 37v-74z"/><path opacity=".94" fill="#212934" stroke="#212934" enable-background="new" d="M256 370l-64 37 64 37v-74z"/><path opacity=".96" fill="#212934" stroke="#212934" enable-background="new" d="M192 333l64 37-64 37v-74z"/><path fill="#212934" stroke="#212934" d="M320.086 333l-64 37 64 37v-74z"/><path opacity=".94" fill="#212934" stroke="#212934" enable-background="new" d="M320 333l64 37-64 37v-74z"/><path opacity=".96" fill="#212934" stroke="#212934" enable-background="new" d="M448 333l-64 37 64 37v-74z"/><path opacity=".98" fill="#212934" stroke="#212934" enable-background="new" d="M448 333l64 37-64 37v-74z"/><path opacity=".94" fill="#212934" stroke="#212934" enable-background="new" d="M576 333l-64 37 64 37v-74z"/><path opacity=".9" fill="#212934" stroke="#212934" enable-background="new" d="M576.085 333l64 37-64 37v-74z"/><path fill="#212934" stroke="#212934" d="M704 333l-64 37 64 37v-74z"/><path opacity=".98" fill="#212934" stroke="#212934" enable-background="new" d="M704 333l64 37-64 37v-74z"/><path opacity=".94" fill="#212934" stroke="#212934" enable-background="new" d="M832 333l-64 37 64 37v-74z"/><path fill="#212934" stroke="#212934" d="M832 333l64 37-64 37v-74z"/><path opacity=".96" fill="#212934" stroke="#212934" enable-background="new" d="M960.086 333l-64 37 64 37v-74z"/><path opacity=".98" fill="#212934" stroke="#212934" enable-background="new" d="M960 333l64 37-64 37v-74zm128 0l-64 37 64 37v-74z"/><path opacity=".96" fill="#212934" stroke="#212934" enable-background="new" d="M1088.086 333l64 37-64 37v-74zM1216 333l-64 37 64 37v-74zm-960 37l64 37-64 37v-74z"/><path opacity=".98" fill="#212934" stroke="#212934" enable-background="new" d="M384 370l-64 37 64 37v-74z"/><path fill="#212934" stroke="#212934" d="M384.086 370l64 37-64 37v-74z"/><path opacity=".94" fill="#212934" stroke="#212934" enable-background="new" d="M512 370l-64 37 64 37v-74z"/><path opacity=".96" fill="#212934" stroke="#212934" enable-background="new" d="M512 370l64 37-64 37v-74z"/><path opacity=".98" fill="#212934" stroke="#212934" enable-background="new" d="M640 370l-64 37 64 37v-74z"/><path opacity=".96" fill="#212934" stroke="#212934" enable-background="new" d="M640.086 370l64 37-64 37v-74z"/><path opacity=".94" fill="#212934" stroke="#212934" enable-background="new" d="M768 370l-64 37 64 37v-74z"/><path opacity=".98" fill="#212934" stroke="#212934" enable-background="new" d="M768.086 370l64 37-64 37v-74z"/><path opacity=".96" fill="#212934" stroke="#212934" enable-background="new" d="M896 370l-64 37 64 37v-74z"/><path fill="#212934" stroke="#212934" d="M896 370l64 37-64 37v-74z"/><path opacity=".94" fill="#212934" stroke="#212934" enable-background="new" d="M1024 370l-64 37 64 37v-74z"/><path fill="#212934" stroke="#212934" d="M1024.086 370l64 37-64 37v-74zM1152 370l-64 37 64 37v-74z"/><path opacity=".94" fill="#212934" stroke="#212934" enable-background="new" d="M1152 370l64 37-64 37v-74z"/><path opacity=".98" fill="#212934" stroke="#212934" enable-background="new" d="M1216 407l64 37-64 37v-74zM64 407L0 444l64 37v-74z"/><path opacity=".94" fill="#212934" stroke="#212934" enable-background="new" d="M64 407l64 37-64 37v-74z"/><path fill="#212934" stroke="#212934" d="M192 407l-64 37 64 37v-74z"/><path opacity=".94" fill="#212934" stroke="#212934" enable-background="new" d="M1280 444l-64 37 64 37v-74z"/><path opacity=".96" fill="#212934" stroke="#212934" enable-background="new" d="M0 444l64 37-64 37v-74z"/><path opacity=".98" fill="#212934" stroke="#212934" enable-background="new" d="M128 444l-64 37 64 37v-74z"/><path opacity=".94" fill="#212934" stroke="#212934" enable-background="new" d="M128 444l64 37-64 37v-74z"/><path opacity=".98" fill="#212934" stroke="#212934" enable-background="new" d="M256.086 444l-64 37 64 37v-74zM192 407l64 37-64 37v-74z"/><path opacity=".96" fill="#212934" stroke="#212934" enable-background="new" d="M320 407l-64 37 64 37v-74z"/><path opacity=".94" fill="#212934" stroke="#212934" enable-background="new" d="M320 407l64 37-64 37v-74z"/><path fill="#212934" stroke="#212934" d="M448 407l-64 37 64 37v-74z"/><path opacity=".96" fill="#212934" stroke="#212934" enable-background="new" d="M448.086 407l64 37-64 37v-74z"/><path fill="#212934" stroke="#212934" d="M576 407l-64 37 64 37v-74z"/><path opacity=".94" fill="#212934" stroke="#212934" enable-background="new" d="M576 407l64 37-64 37v-74z"/><path opacity=".98" fill="#212934" stroke="#212934" enable-background="new" d="M704.086 407l-64 37 64 37v-74z"/><path fill="#212934" stroke="#212934" d="M704 407l64 37-64 37v-74zm128 0l-64 37 64 37v-74z"/><path opacity=".94" fill="#212934" stroke="#212934" enable-background="new" d="M832.086 407l64 37-64 37v-74z"/><path opacity=".96" fill="#212934" stroke="#212934" enable-background="new" d="M960 407l-64 37 64 37v-74z"/><path opacity=".98" fill="#212934" stroke="#212934" enable-background="new" d="M960.086 407l64 37-64 37v-74z"/><path opacity=".96" fill="#212934" stroke="#212934" enable-background="new" d="M1088 407l-64 37 64 37v-74z"/><path opacity=".94" fill="#212934" stroke="#212934" enable-background="new" d="M1088.086 407l64 37-64 37v-74z"/><path opacity=".96" fill="#212934" stroke="#212934" enable-background="new" d="M1216 407l-64 37 64 37v-74z"/><path fill="#212934" stroke="#212934" d="M256 444l64 37-64 37v-74zm128 0l-64 37 64 37v-74z"/><path opacity=".98" fill="#212934" stroke="#212934" enable-background="new" d="M384 444l64 37-64 37v-74z"/><path opacity=".96" fill="#212934" stroke="#212934" enable-background="new" d="M512 444l-64 37 64 37v-74z"/><path opacity=".94" fill="#212934" stroke="#212934" enable-background="new" d="M512.085 444l64 37-64 37v-74z"/><path opacity=".96" fill="#212934" stroke="#212934" enable-background="new" d="M640 444l-64 37 64 37v-74z"/><path opacity=".85" fill="#212934" stroke="#212934" enable-background="new" d="M640 444l64 37-64 37v-74z"/><path opacity=".94" fill="#212934" stroke="#212934" enable-background="new" d="M768 444l-64 37 64 37v-74z"/><path opacity=".96" fill="#212934" stroke="#212934" enable-background="new" d="M768.086 444l64 37-64 37v-74z"/><path fill="#212934" stroke="#212934" d="M896 444l-64 37 64 37v-74zm0 0l64 37-64 37v-74z"/><path opacity=".98" fill="#212934" stroke="#212934" enable-background="new" d="M1024 444l-64 37 64 37v-74zm.086 0l64 37-64 37v-74z"/><path fill="#212934" stroke="#212934" d="M1152 444l-64 37 64 37v-74z"/><path opacity=".94" fill="#212934" stroke="#212934" enable-background="new" d="M1152.086 444l64 37-64 37v-74zM1216 481l64 37-64 37v-74z"/><path opacity=".96" fill="#212934" stroke="#212934" enable-background="new" d="M64 481L0 518l64 37v-74z"/><path opacity=".94" fill="#212934" stroke="#212934" enable-background="new" d="M64.086 481l64 37-64 37v-74z"/><path opacity=".98" fill="#212934" stroke="#212934" enable-background="new" d="M192 481l-64 37 64 37v-74zm1088 37l-64 37 64 37v-74z"/><path fill="#212934" stroke="#212934" d="M0 518l64 37-64 37v-74z"/><path opacity=".98" fill="#212934" stroke="#212934" enable-background="new" d="M128 518l-64 37 64 37v-74z"/><path opacity=".94" fill="#212934" stroke="#212934" enable-background="new" d="M128 518l64 37-64 37v-74z"/><path opacity=".96" fill="#212934" stroke="#212934" enable-background="new" d="M256 518l-64 37 64 37v-74zm-64-37l64 37-64 37v-74z"/><path fill="#212934" stroke="#212934" d="M320 481l-64 37 64 37v-74zm.086 0l64 37-64 37v-74zM448 481l-64 37 64 37v-74z"/><path opacity=".94" fill="#212934" stroke="#212934" enable-background="new" d="M448 481l64 37-64 37v-74z"/><path opacity=".96" fill="#212934" stroke="#212934" enable-background="new" d="M576 481l-64 37 64 37v-74z"/><path fill="#212934" stroke="#212934" d="M576.085 481l64 37-64 37v-74z"/><path opacity=".8" fill="#212934" stroke="#212934" enable-background="new" d="M704 481l-64 37 64 37v-74z"/><path opacity=".98" fill="#212934" stroke="#212934" enable-background="new" d="M704 481l64 37-64 37v-74z"/><path fill="#212934" stroke="#212934" d="M832 481l-64 37 64 37v-74z"/><path opacity=".98" fill="#212934" stroke="#212934" enable-background="new" d="M832 481l64 37-64 37v-74z"/><path opacity=".94" fill="#212934" stroke="#212934" enable-background="new" d="M960.086 481l-64 37 64 37v-74z"/><path opacity=".98" fill="#212934" stroke="#212934" enable-background="new" d="M960 481l64 37-64 37v-74zm128 0l-64 37 64 37v-74z"/><path opacity=".94" fill="#212934" stroke="#212934" enable-background="new" d="M1088 481l64 37-64 37v-74z"/><path opacity=".96" fill="#212934" stroke="#212934" enable-background="new" d="M1216 481l-64 37 64 37v-74z"/><path opacity=".94" fill="#212934" stroke="#212934" enable-background="new" d="M256 518l64 37-64 37v-74z"/><path opacity=".98" fill="#212934" stroke="#212934" enable-background="new" d="M384 518l-64 37 64 37v-74z"/><path opacity=".96" fill="#212934" stroke="#212934" enable-background="new" d="M384 518l64 37-64 37v-74z"/><path opacity=".98" fill="#212934" stroke="#212934" enable-background="new" d="M512 518l-64 37 64 37v-74z"/><path opacity=".94" fill="#212934" stroke="#212934" enable-background="new" d="M512 518l64 37-64 37v-74z"/><path opacity=".9" fill="#212934" stroke="#212934" enable-background="new" d="M640 518l-64 37 64 37v-74z"/><path fill="#212934" stroke="#212934" d="M640 518l64 37-64 37v-74z"/><path opacity=".96" fill="#212934" stroke="#212934" enable-background="new" d="M768 518l-64 37 64 37v-74z"/><path opacity=".94" fill="#212934" stroke="#212934" enable-background="new" d="M768 518l64 37-64 37v-74zm128 0l-64 37 64 37v-74z"/><path fill="#212934" stroke="#212934" d="M896 518l64 37-64 37v-74z"/><path opacity=".98" fill="#212934" stroke="#212934" enable-background="new" d="M1024 518l-64 37 64 37v-74z"/><path fill="#212934" stroke="#212934" d="M1024 518l64 37-64 37v-74zm128 0l-64 37 64 37v-74z"/><path opacity=".96" fill="#212934" stroke="#212934" enable-background="new" d="M1152 518l64 37-64 37v-74zm64 37l64 37-64 37v-74z"/><path opacity=".98" fill="#212934" stroke="#212934" enable-background="new" d="M64 555L0 592l64 37v-74z"/><path fill="#212934" stroke="#212934" d="M64 555l64 37-64 37v-74z"/><path opacity=".98" fill="#212934" stroke="#212934" enable-background="new" d="M192 555l-64 37 64 37v-74z"/><path opacity=".96" fill="#212934" stroke="#212934" enable-background="new" d="M1280 592l-64 37 64 37v-74z"/><path opacity=".98" fill="#212934" stroke="#212934" enable-background="new" d="M0 592l64 37-64 37v-74z"/><path opacity=".96" fill="#212934" stroke="#212934" enable-background="new" d="M128 592l-64 37 64 37v-74z"/><path opacity=".94" fill="#212934" stroke="#212934" enable-background="new" d="M128 592l64 37-64 37v-74z"/><path opacity=".98" fill="#212934" stroke="#212934" enable-background="new" d="M256 592l-64 37 64 37v-74z"/><path opacity=".9" fill="#212934" stroke="#212934" enable-background="new" d="M192 555l64 37-64 37v-74z"/><path fill="#212934" stroke="#212934" d="M320 555l-64 37 64 37v-74z"/><path opacity=".94" fill="#212934" stroke="#212934" enable-background="new" d="M320 555l64 37-64 37v-74z"/><path fill="#212934" stroke="#212934" d="M448 555l-64 37 64 37v-74z"/><path opacity=".98" fill="#212934" stroke="#212934" enable-background="new" d="M448 555l64 37-64 37v-74z"/><path fill="#212934" stroke="#212934" d="M576 555l-64 37 64 37v-74zm0 0l64 37-64 37v-74z"/><path opacity=".94" fill="#212934" stroke="#212934" enable-background="new" d="M704 555l-64 37 64 37v-74z"/><path opacity=".96" fill="#212934" stroke="#212934" enable-background="new" d="M704 555l64 37-64 37v-74z"/><path opacity=".94" fill="#212934" stroke="#212934" enable-background="new" d="M832 555l-64 37 64 37v-74z"/><path opacity=".96" fill="#212934" stroke="#212934" enable-background="new" d="M832 555l64 37-64 37v-74z"/><path opacity=".98" fill="#212934" stroke="#212934" enable-background="new" d="M960 555l-64 37 64 37v-74z"/><path opacity=".96" fill="#212934" stroke="#212934" enable-background="new" d="M960 555l64 37-64 37v-74z"/><path opacity=".8" fill="#212934" stroke="#212934" enable-background="new" d="M1088 555l-64 37 64 37v-74z"/><path opacity=".96" fill="#212934" stroke="#212934" enable-background="new" d="M1088 555l64 37-64 37v-74z"/><path opacity=".94" fill="#212934" stroke="#212934" enable-background="new" d="M1216 555l-64 37 64 37v-74z"/><path fill="#212934" stroke="#212934" d="M256 592l64 37-64 37v-74z"/><path opacity=".98" fill="#212934" stroke="#212934" enable-background="new" d="M384 592l-64 37 64 37v-74z"/><path fill="#212934" stroke="#212934" d="M384 592l64 37-64 37v-74z"/><path opacity=".94" fill="#212934" stroke="#212934" enable-background="new" d="M512 592l-64 37 64 37v-74z"/><path opacity=".96" fill="#212934" stroke="#212934" enable-background="new" d="M512 592l64 37-64 37v-74z"/><path opacity=".94" fill="#212934" stroke="#212934" enable-background="new" d="M640 592l-64 37 64 37v-74z"/><path opacity=".96" fill="#212934" stroke="#212934" enable-background="new" d="M640 592l64 37-64 37v-74z"/><path fill="#212934" stroke="#212934" d="M768 592l-64 37 64 37v-74zm0 0l64 37-64 37v-74z"/><path opacity=".94" fill="#212934" stroke="#212934" enable-background="new" d="M896 592l-64 37 64 37v-74z"/><path fill="#212934" stroke="#212934" d="M896 592l64 37-64 37v-74z"/><path opacity=".98" fill="#212934" stroke="#212934" enable-background="new" d="M1024 592l-64 37 64 37v-74z"/><path opacity=".94" fill="#212934" stroke="#212934" enable-background="new" d="M1024 592l64 37-64 37v-74z"/><path opacity=".96" fill="#212934" stroke="#212934" enable-background="new" d="M1152 592l-64 37 64 37v-74z"/><path opacity=".98" fill="#212934" stroke="#212934" enable-background="new" d="M1152 592l64 37-64 37v-74z"/><path opacity=".96" fill="#212934" stroke="#212934" d="M1216 629l64 37h-64v-37z"/><path opacity=".94" fill="#212934" stroke="#212934" enable-background="new" d="M64 629L0 666h64v-37zM64 629l64 37H64v-37z"/><path fill="#212934" stroke="#212934" enable-background="new" d="M192 629l-64 37h64z"/><path opacity=".94" fill="#212934" stroke="#212934" enable-background="new" d="M192 629l64 37h-64v-37z"/><path opacity=".96" fill="#212934" stroke="#212934" enable-background="new" d="M320 629l-64 37h64zM320 629l64 37h-64z"/><path fill="#212934" stroke="#212934" enable-background="new" d="M448 629l-64 37h64v-37z"/><path opacity=".9" fill="#212934" stroke="#212934" d="M448 629l64 37h-64z"/><path opacity=".98" fill="#212934" stroke="#212934" d="M576 629l-64 37h64z"/><path opacity=".96" fill="#212934" stroke="#212934" enable-background="new" d="M576 629l64 37h-64v-37z"/><path fill="#212934" stroke="#212934" enable-background="new" d="M704 629l-64 37h64z"/><path opacity=".98" fill="#212934" stroke="#212934" enable-background="new" d="M704 629l64 37h-64z"/><path opacity=".96" fill="#212934" stroke="#212934" enable-background="new" d="M832 629l-64 37h64v-37z"/><path opacity=".98" fill="#212934" stroke="#212934" d="M832 629l64 37h-64v-37z"/><path opacity=".96" fill="#212934" stroke="#212934" enable-background="new" d="M960 629l-64 37h64v-37z"/><path opacity=".9" fill="#212934" stroke="#212934" enable-background="new" d="M960 629l64 37h-64v-37z"/><path opacity=".94" fill="#212934" stroke="#212934" enable-background="new" d="M1088 629l-64 37h64v-37z"/><path fill="#212934" stroke="#212934" d="M1088 629l64 37h-64v-37z"/><path opacity=".96" fill="#212934" stroke="#212934" enable-background="new" d="M1216 629l-64 37h64z"/><path opacity=".7" fill="#212934" stroke="#212934" stroke-width=".975" enable-background="new" d="M1280 0v666H0V0"/></svg>